{
  "asset": {
    "generator": "Khronos glTF Blender I/O v4.0.44",
    "version": "2.0"
  },
  "extensionsUsed": ["KHR_materials_specular", "KHR_materials_ior"],
  "scene": 0,
  "scenes": [
    {
      "name": "Scene",
      "nodes": [0]
    }
  ],
  "nodes": [
    {
      "mesh": 0,
      "name": "calatravapen",
      "rotation": [
        0.6728237271308899, 0.21750445663928986, 0.21750448644161224,
        0.6728237867355347
      ],
      "scale": [0.5, 0.5, 0.5]
    }
  ],
  "materials": [
    {
      "doubleSided": true,
      "extensions": {
        "KHR_materials_specular": {
          "specularFactor": 0
        },
        "KHR_materials_ior": {
          "ior": 1.4500000476837158
        }
      },
      "name": "diffuse_ControlText",
      "pbrMetallicRoughness": {
        "baseColorTexture": {
          "index": 0
        },
        "metallicFactor": 0.9295454621315002,
        "roughnessFactor": 0
      }
    }
  ],
  "meshes": [
    {
      "name": "calatravapen",
      "primitives": [
        {
          "attributes": {
            "POSITION": 0,
            "NORMAL": 1,
            "TEXCOORD_0": 2
          },
          "indices": 3,
          "material": 0
        }
      ]
    }
  ],
  "textures": [
    {
      "sampler": 0,
      "source": 0
    }
  ],
  "images": [
    {
      "mimeType": "image/png",
      "name": "CalatravaPenBase Color",
      "uri": "CalatravaPenBase%20Color.png"
    }
  ],
  "accessors": [
    {
      "bufferView": 0,
      "componentType": 5126,
      "count": 26580,
      "max": [68.15240478515625, 14.772948265075684, 2.5964407920837402],
      "min": [-116.77787017822266, -12.148017883300781, -25.216686248779297],
      "type": "VEC3"
    },
    {
      "bufferView": 1,
      "componentType": 5126,
      "count": 26580,
      "type": "VEC3"
    },
    {
      "bufferView": 2,
      "componentType": 5126,
      "count": 26580,
      "type": "VEC2"
    },
    {
      "bufferView": 3,
      "componentType": 5123,
      "count": 51180,
      "type": "SCALAR"
    }
  ],
  "bufferViews": [
    {
      "buffer": 0,
      "byteLength": 318960,
      "byteOffset": 0,
      "target": 34962
    },
    {
      "buffer": 0,
      "byteLength": 318960,
      "byteOffset": 318960,
      "target": 34962
    },
    {
      "buffer": 0,
      "byteLength": 212640,
      "byteOffset": 637920,
      "target": 34962
    },
    {
      "buffer": 0,
      "byteLength": 102360,
      "byteOffset": 850560,
      "target": 34963
    }
  ],
  "samplers": [
    {
      "magFilter": 9729,
      "minFilter": 9987
    }
  ],
  "buffers": [
    {
      "byteLength": 952920,
      "uri": "CalatravaPen3.bin"
    }
  ]
}
