{
	"asset":{
		"generator":"Khronos glTF Blender I/O v4.0.44",
		"version":"2.0"
	},
	"extensionsUsed":[
		"KHR_materials_specular",
		"KHR_materials_ior",
		"KHR_texture_transform"
	],
	"extensionsRequired":[
		"KHR_texture_transform"
	],
	"scene":0,
	"scenes":[
		{
			"name":"Scene",
			"nodes":[
				0
			]
		}
	],
	"nodes":[
		{
			"mesh":0,
			"name":"calatravaBottleOpener",
			"rotation":[
				0.7071068286895752,
				0,
				0,
				0.7071068286895752
			]
		}
	],
	"materials":[
		{
			"doubleSided":true,
			"extensions":{
				"KHR_materials_specular":{
					"specularFactor":0
				},
				"KHR_materials_ior":{
					"ior":1.4500000476837158
				}
			},
			"name":"diffuse_ControlText",
			"normalTexture":{
				"extensions":{
					"KHR_texture_transform":{
						"offset":[
							0,
							0.5
						],
						"scale":[
							0.5,
							0.5
						]
					}
				},
				"index":0
			},
			"pbrMetallicRoughness":{
				"baseColorTexture":{
					"extensions":{
						"KHR_texture_transform":{
							"offset":[
								0,
								0.5
							],
							"scale":[
								0.5,
								0.5
							]
						}
					},
					"index":1
				},
				"metallicRoughnessTexture":{
					"extensions":{
						"KHR_texture_transform":{
							"offset":[
								0,
								0.5
							],
							"scale":[
								0.5,
								0.5
							]
						}
					},
					"index":2
				}
			}
		}
	],
	"meshes":[
		{
			"name":"calatravaBottleOpener",
			"primitives":[
				{
					"attributes":{
						"POSITION":0,
						"NORMAL":1,
						"TEXCOORD_0":2
					},
					"indices":3,
					"material":0
				}
			]
		}
	],
	"textures":[
		{
			"sampler":0,
			"source":0
		},
		{
			"sampler":0,
			"source":1
		},
		{
			"sampler":0,
			"source":2
		}
	],
	"images":[
		{
			"mimeType":"image/png",
			"name":"Metal049A_1K-PNG_NormalDX",
			"uri":"Metal049A_1K-PNG_NormalDX.png"
		},
		{
			"mimeType":"image/png",
			"name":"Metal049A_1K-PNG_Color",
			"uri":"Metal049A_1K-PNG_Color.png"
		},
		{
			"mimeType":"image/png",
			"name":"Metal049A_1K-PNG_Metalness-Metal049A_1K-PNG_Roughness",
			"uri":"Metal049A_1K-PNG_Metalness-Metal049A_1K-PNG_Roughness.png"
		}
	],
	"accessors":[
		{
			"bufferView":0,
			"componentType":5126,
			"count":68142,
			"max":[
				41.810298919677734,
				19.71158218383789,
				11.389667510986328
			],
			"min":[
				-26.806306838989258,
				-9.763259887695312,
				-9.452471733093262
			],
			"type":"VEC3"
		},
		{
			"bufferView":1,
			"componentType":5126,
			"count":68142,
			"type":"VEC3"
		},
		{
			"bufferView":2,
			"componentType":5126,
			"count":68142,
			"type":"VEC2"
		},
		{
			"bufferView":3,
			"componentType":5125,
			"count":291180,
			"type":"SCALAR"
		}
	],
	"bufferViews":[
		{
			"buffer":0,
			"byteLength":817704,
			"byteOffset":0,
			"target":34962
		},
		{
			"buffer":0,
			"byteLength":817704,
			"byteOffset":817704,
			"target":34962
		},
		{
			"buffer":0,
			"byteLength":545136,
			"byteOffset":1635408,
			"target":34962
		},
		{
			"buffer":0,
			"byteLength":1164720,
			"byteOffset":2180544,
			"target":34963
		}
	],
	"samplers":[
		{
			"magFilter":9729,
			"minFilter":9987
		}
	],
	"buffers":[
		{
			"byteLength":3345264,
			"uri":"untitled.bin"
		}
	]
}
