{
	"asset":{
		"generator":"Khronos glTF Blender I/O v4.0.44",
		"version":"2.0"
	},
	"extensionsUsed":[
		"KHR_materials_specular",
		"KHR_materials_ior"
	],
	"scene":0,
	"scenes":[
		{
			"name":"Scene",
			"nodes":[
				0
			]
		}
	],
	"nodes":[
		{
			"mesh":0,
			"name":"model",
			"rotation":[
				0.7071068286895752,
				0,
				0,
				0.7071068286895752
			],
			"scale":[
				3,
				3,
				3
			]
		}
	],
	"materials":[
		{
			"doubleSided":true,
			"extensions":{
				"KHR_materials_specular":{
					"specularFactor":0.6666666865348816
				},
				"KHR_materials_ior":{
					"ior":1.4500000476837158
				}
			},
			"name":"material_1",
			"pbrMetallicRoughness":{
				"baseColorTexture":{
					"index":0
				},
				"metallicFactor":0
			}
		}
	],
	"meshes":[
		{
			"name":"model",
			"primitives":[
				{
					"attributes":{
						"POSITION":0,
						"NORMAL":1,
						"TEXCOORD_0":2
					},
					"indices":3,
					"material":0
				}
			]
		}
	],
	"textures":[
		{
			"sampler":0,
			"source":0
		}
	],
	"images":[
		{
			"mimeType":"image/png",
			"name":"texgen_0",
			"uri":"texgen_0.png"
		}
	],
	"accessors":[
		{
			"bufferView":0,
			"componentType":5126,
			"count":25021,
			"max":[
				0.8850769996643066,
				0.7481849789619446,
				0
			],
			"min":[
				-0.8850769996643066,
				-0.7481849789619446,
				-0.3527950048446655
			],
			"type":"VEC3"
		},
		{
			"bufferView":1,
			"componentType":5126,
			"count":25021,
			"type":"VEC3"
		},
		{
			"bufferView":2,
			"componentType":5126,
			"count":25021,
			"type":"VEC2"
		},
		{
			"bufferView":3,
			"componentType":5123,
			"count":74994,
			"type":"SCALAR"
		}
	],
	"bufferViews":[
		{
			"buffer":0,
			"byteLength":300252,
			"byteOffset":0,
			"target":34962
		},
		{
			"buffer":0,
			"byteLength":300252,
			"byteOffset":300252,
			"target":34962
		},
		{
			"buffer":0,
			"byteLength":200168,
			"byteOffset":600504,
			"target":34962
		},
		{
			"buffer":0,
			"byteLength":149988,
			"byteOffset":800672,
			"target":34963
		}
	],
	"samplers":[
		{
			"magFilter":9729,
			"minFilter":9987
		}
	],
	"buffers":[
		{
			"byteLength":950660,
			"uri":"WebTest2.bin"
		}
	]
}
