<?xml version="1.0" encoding="UTF-8"?><svg id="Layer_1" xmlns="http://www.w3.org/2000/svg" viewBox="0 0 1366 768"><path d="M692.79,663.95c-232.37,0-421.42-77.84-421.42-173.51s189.05-173.51,421.42-173.51,421.42,77.84,421.42,173.51-189.05,173.51-421.42,173.51Z" style="fill:#fff;"/><path d="M692.79,317.43c232.09,0,420.92,77.61,420.92,173.01s-188.82,173.01-420.92,173.01-420.92-77.61-420.92-173.01,188.82-173.01,420.92-173.01M692.79,316.43c-233.02,0-421.92,77.91-421.92,174.01s188.9,174.01,421.92,174.01,421.92-77.91,421.92-174.01-188.9-174.01-421.92-174.01h0Z"/><polygon points="671.04 87.33 255.74 539.38 671.04 539.38 671.04 87.33" style="fill:gray; opacity:.64;"/><rect x="671.54" y="87.83" width="42.49" height="451.05" style="fill:#fff;"/><path d="M713.54,88.33v450.05h-41.49V88.33h41.49M714.54,87.33h-43.49v452.05h43.49V87.33h0Z"/></svg>